# xmcd
#
# Track frame offsets: 
#        150
#        22110
#        39997
#        64472
#        83430
#        107807
#        129257
#        154560
#        177132
#        198932
#        225770
#        249132
#        269620
#        288120
#
# Disc length: 4074 seconds
#
# Revision: 1
# Processed by: cddbd v1.4PL0 Copyright (c) Steve Scherf et al.
# Submitted via: ExactAudioCopy v0.90b4
#
DISCID=a80fe80e
DTITLE=Anders Osborne - Ash Wednesday Blues
DYEAR=2001
DGENRE=Blues
TTITLE0=Stoned, Drunk and Naked
TTITLE1=Ho-Di-Ko-Di-Ya-La-Ma-La
TTITLE2=Every Bit Of Love
TTITLE3=Stuck On My Baby
TTITLE4=Snake Bit
TTITLE5=Soul Livin'
TTITLE6=Me and Lola
TTITLE7=Kingdom Come
TTITLE8=Kiddin' Me
TTITLE9=Life Is Strange
TTITLE10=Aim Way High
TTITLE11=Improvise
TTITLE12=Ash Wednesday Blues
TTITLE13=Through and Through
EXTD=
EXTT0=
EXTT1=
EXTT2=
EXTT3=
EXTT4=
EXTT5=
EXTT6=
EXTT7=
EXTT8=
EXTT9=
EXTT10=
EXTT11=
EXTT12=
EXTT13=
PLAYORDER=
